<svg id="图层_1" data-name="图层 1" xmlns="http://www.w3.org/2000/svg" viewBox="0 0 1631 284.82534"><defs><style>.cls-1{fill:#c1272d;}</style></defs><path class="cls-1" d="M388.57973,678.92323H294.36492L320.5357,555.48438H266.8856L240.71481,678.92323H146.5l58.88426-276.9741h94.651l-25.7346,120.38559h53.21392l25.7346-120.38559h95.08718Z" transform="translate(-146.5 -397.58733)"/><path class="cls-1" d="M616.25871,397.58733q37.50806,0,60.84707,9.596A80.0682,80.0682,0,0,1,713.963,436.8435a112.25505,112.25505,0,0,1,13.52157,30.53258q4.79457,17.011,4.798,39.25617a214.3162,214.3162,0,0,1-3.48943,38.38382,233.42157,233.42157,0,0,1-9.81405,36.85718,203.23968,203.23968,0,0,1-15.26629,33.14966,151.453,151.453,0,0,1-19.84617,27.26123q-20.50727,22.24517-47.3255,31.18685-26.82506,8.93487-66.08122,8.94168-37.94764,0-61.06516-7.85123Q486.27035,666.7102,472.7556,649.263q-9.59937-12.20621-15.0482-30.96876-5.45907-18.74891-5.45225-47.1074,0-48.416,17.2291-86.58167,17.22568-38.16231,49.07021-60.41089A137.53014,137.53014,0,0,1,561.30007,404.13Q584.85377,397.58733,616.25871,397.58733Zm-49.2883,254.29276q10.02873,0,18.97382-8.94168,8.93486-8.93487,16.57482-23.98989a246.714,246.714,0,0,0,13.95775-34.2401,379.39,379.39,0,0,0,10.68641-39.69235q4.355-20.49705,6.76078-40.7828a317.14513,317.14513,0,0,0,2.399-36.85719q0-22.67453-4.57989-31.18685-4.57988-8.5055-13.30348-8.5055-10.03895,0-19.1919,8.72359-9.15978,8.73042-17.2291,23.33562a200.38513,200.38513,0,0,0-14.39393,33.58583q-6.328,18.97382-10.90449,39.03809a390.9226,390.9226,0,0,0-6.97888,39.69235,299.54892,299.54892,0,0,0-2.399,36.20291q0,24.86225,5.45225,34.24011Q558.24341,651.88691,566.97041,651.88009Z" transform="translate(-146.5 -397.58733)"/><path class="cls-1" d="M983.9616,435.09878H913.73582L861.83044,678.92323H767.61562L819.521,435.09878H750.16844l7.85123-33.14965h233.357Z" transform="translate(-146.5 -397.58733)"/><path class="cls-1" d="M1232.14444,467.81226a84.57431,84.57431,0,0,1-14.39393,47.54359q-14.39393,21.81579-47.54359,33.14965l50.59685,130.41773H1123.5357l-38.38382-120.82177h-4.798l-25.7346,120.82177H960.40449l58.88426-276.9741H1134.004a286.50364,286.50364,0,0,1,37.94763,2.399q17.88,2.40238,31.18685,9.596a55.06741,55.06741,0,0,1,21.15472,20.06426Q1232.14444,446.87905,1232.14444,467.81226ZM1106.52469,530.186a27.24152,27.24152,0,0,0,19.41-7.63315,59.28215,59.28215,0,0,0,13.08539-18.53763,95.09146,95.09146,0,0,0,7.197-23.33562,127.54033,127.54033,0,0,0,2.1809-21.59089q0-11.33727-3.92562-19.41-3.92562-8.06592-17.011-8.06932h-19.62808l-21.809,98.57661Z" transform="translate(-146.5 -397.58733)"/><path class="cls-1" d="M1503.14638,678.92323h-102.066l-6.10651-69.35257h-80.69325l-30.96875,69.35257h-42.30944l128.673-276.9741H1473.05ZM1328.6745,577.72954h63.24606l-10.03213-118.64087Z" transform="translate(-146.5 -397.58733)"/><path class="cls-1" d="M1692.445,574.24011l-48.416,104.68312h-94.651l49.51321-112.09988-68.26894-164.87422H1600.636l34.89438,105.55378,47.75486-105.55378H1777.5Z" transform="translate(-146.5 -397.58733)"/></svg>